<svg width="20" height="21" viewBox="0 0 20 21" fill="none" xmlns="http://www.w3.org/2000/svg">
<path d="M8.08 9.8359C8.13 9.50573 8.24 9.21557 8.38 8.96544C8.52 8.71531 8.72 8.5052 8.97 8.34511C9.21 8.19503 9.51 8.12499 9.88 8.11499C10.11 8.12499 10.32 8.16502 10.51 8.24506C10.71 8.33511 10.89 8.45517 11.03 8.60525C11.17 8.75533 11.28 8.93542 11.37 9.13553C11.46 9.33564 11.5 9.55575 11.51 9.77587H13.3C13.28 9.30562 13.19 8.87539 13.02 8.48519C12.85 8.09498 12.62 7.7548 12.32 7.47465C12.02 7.1945 11.66 6.97438 11.24 6.8143C10.82 6.65421 10.36 6.58418 9.85 6.58418C9.2 6.58418 8.63 6.69423 8.15 6.92436C7.67 7.15448 7.27 7.45464 6.95 7.84484C6.63 8.23505 6.39 8.68529 6.24 9.20557C6.09 9.72584 6 10.2661 6 10.8464V11.1166C6 11.6969 6.08 12.2372 6.23 12.7575C6.38 13.2777 6.62 13.728 6.94 14.1082C7.26 14.4884 7.66 14.7985 8.14 15.0187C8.62 15.2388 9.19 15.3588 9.84 15.3588C10.31 15.3588 10.75 15.2788 11.16 15.1287C11.57 14.9786 11.93 14.7685 12.24 14.4984C12.55 14.2282 12.8 13.9181 12.98 13.5579C13.16 13.1977 13.27 12.8175 13.28 12.4073H11.49C11.48 12.6174 11.43 12.8075 11.34 12.9876C11.25 13.1677 11.13 13.3178 10.98 13.4478C10.83 13.5779 10.66 13.6779 10.46 13.748C10.27 13.818 10.07 13.838 9.86 13.848C9.5 13.838 9.2 13.768 8.97 13.6179C8.72 13.4578 8.52 13.2477 8.38 12.9976C8.24 12.7475 8.13 12.4473 8.08 12.1171C8.03 11.7869 8 11.4468 8 11.1166V10.8464C8 10.4963 8.03 10.1661 8.08 9.8359ZM10 0.971191C4.48 0.971191 0 5.45357 0 10.9765C0 16.4994 4.48 20.9818 10 20.9818C15.52 20.9818 20 16.4994 20 10.9765C20 5.45357 15.52 0.971191 10 0.971191ZM10 18.9808C5.59 18.9808 2 15.3889 2 10.9765C2 6.56416 5.59 2.97225 10 2.97225C14.41 2.97225 18 6.56416 18 10.9765C18 15.3889 14.41 18.9808 10 18.9808Z" fill="#172D60"/>
</svg>
