<svg width="182" height="50" viewBox="0 0 182 50" fill="none" xmlns="http://www.w3.org/2000/svg">
<path d="M26.168 19.9C26.168 20.327 26.084 20.7596 25.916 21.1981C25.748 21.6366 25.514 22.0346 25.214 22.3923C24.914 22.75 24.56 23.0443 24.152 23.275C23.744 23.5058 23.3 23.6212 22.82 23.6212C22.556 23.6212 22.304 23.5808 22.064 23.5C21.836 23.4193 21.632 23.3097 21.452 23.1712C21.272 23.0212 21.128 22.8423 21.02 22.6346C20.912 22.427 20.858 22.1962 20.858 21.9423C20.858 21.6539 20.906 21.3654 21.002 21.077C21.11 20.777 21.248 20.5058 21.416 20.2635C21.584 20.0096 21.776 19.7904 21.992 19.6058C22.208 19.4212 22.43 19.2943 22.658 19.225C22.694 19.202 22.736 19.2135 22.784 19.2596C22.844 19.3058 22.856 19.3404 22.82 19.3635C22.688 19.4443 22.544 19.5539 22.388 19.6923C22.232 19.8308 22.082 19.9981 21.938 20.1943C21.806 20.3904 21.692 20.6154 21.596 20.8693C21.5 21.1116 21.452 21.3827 21.452 21.6827C21.452 22.075 21.578 22.3231 21.83 22.427C22.082 22.5308 22.418 22.5827 22.838 22.5827C23.222 22.5827 23.576 22.4904 23.9 22.3058C24.224 22.1096 24.5 21.8673 24.728 21.5789C24.968 21.2789 25.154 20.9558 25.286 20.6096C25.418 20.252 25.484 19.9058 25.484 19.5712C25.484 19.2366 25.418 18.9308 25.286 18.6539C25.154 18.377 24.974 18.1404 24.746 17.9443C24.518 17.7366 24.254 17.5808 23.954 17.477C23.654 17.3616 23.342 17.3039 23.018 17.3039C22.382 17.3039 21.758 17.4654 21.146 17.7885C20.546 18.1 19.976 18.5154 19.436 19.0346C18.908 19.5539 18.422 20.1481 17.978 20.8173C17.534 21.475 17.15 22.15 16.826 22.8423C16.502 23.5346 16.25 24.2154 16.07 24.8846C15.89 25.5423 15.8 26.1308 15.8 26.65C15.8 27.2039 15.848 27.7058 15.944 28.1558C16.052 28.5943 16.214 28.975 16.43 29.2981C16.658 29.6097 16.946 29.852 17.294 30.025C17.654 30.1981 18.086 30.2847 18.59 30.2847C18.854 30.2847 19.154 30.2385 19.49 30.1462C19.826 30.0539 20.162 29.927 20.498 29.7654C20.834 29.5923 21.152 29.3962 21.452 29.177C21.764 28.9462 22.028 28.6981 22.244 28.4327C22.292 28.375 22.34 28.352 22.388 28.3635C22.436 28.375 22.472 28.4039 22.496 28.45C22.532 28.4962 22.556 28.5481 22.568 28.6058C22.58 28.6635 22.574 28.7097 22.55 28.7443C22.31 29.0789 21.998 29.3731 21.614 29.627C21.242 29.8693 20.834 30.077 20.39 30.25C19.958 30.4231 19.508 30.5558 19.04 30.6481C18.572 30.7289 18.122 30.7693 17.69 30.7693C16.43 30.7693 15.5 30.4462 14.9 29.8C14.3 29.1423 14 28.225 14 27.0481C14 26.3558 14.108 25.6231 14.324 24.85C14.54 24.077 14.84 23.3212 15.224 22.5827C15.62 21.8327 16.088 21.1173 16.628 20.4366C17.18 19.7558 17.78 19.1558 18.428 18.6366C19.088 18.1173 19.784 17.7077 20.516 17.4077C21.26 17.0962 22.028 16.9404 22.82 16.9404C23.288 16.9404 23.726 17.0096 24.134 17.1481C24.542 17.275 24.896 17.4654 25.196 17.7193C25.496 17.9616 25.73 18.2673 25.898 18.6366C26.078 19.0058 26.168 19.427 26.168 19.9Z" fill="#172D60"/>
<path d="M37.1058 23.6904C37.1058 23.8289 37.0698 23.9962 36.9978 24.1923C36.9378 24.3885 36.8718 24.5673 36.7998 24.7289L35.1078 28.6058C35.0118 28.802 34.9098 29.0097 34.8018 29.2289C34.7058 29.4481 34.6578 29.6212 34.6578 29.7481C34.6578 29.8635 34.6758 29.9847 34.7118 30.1116C34.7598 30.227 34.8678 30.2847 35.0358 30.2847C35.1558 30.2847 35.2878 30.25 35.4318 30.1808C35.5758 30.1 35.7138 30.0077 35.8458 29.9039C35.9898 29.7885 36.1218 29.6789 36.2418 29.575C36.3738 29.4596 36.4818 29.3673 36.5658 29.2981C36.6978 29.1943 36.7758 29.2058 36.7998 29.3327C36.8238 29.4597 36.7578 29.5923 36.6018 29.7308C36.3018 30.0077 35.9778 30.25 35.6298 30.4577C35.2938 30.6654 34.8978 30.7693 34.4418 30.7693C34.1058 30.7693 33.8058 30.6885 33.5418 30.527C33.2898 30.3654 33.1638 30.1116 33.1638 29.7654C33.1638 29.5346 33.2118 29.2866 33.3078 29.0212C33.4038 28.7443 33.5358 28.4212 33.7038 28.052L35.2158 24.5558C35.2878 24.3827 35.3418 24.1923 35.3778 23.9847C35.4258 23.7654 35.4378 23.5635 35.4138 23.3789C35.4018 23.1827 35.3538 23.0212 35.2698 22.8943C35.1858 22.7558 35.0598 22.6866 34.8918 22.6866C34.7478 22.6866 34.5918 22.7154 34.4238 22.7731C34.2558 22.8308 34.0818 22.9058 33.9018 22.9981C33.7338 23.0904 33.5658 23.2058 33.3978 23.3443C33.2418 23.4712 33.1038 23.6039 32.9838 23.7423C32.9838 23.7885 32.9658 23.8693 32.9298 23.9847C32.9058 24.0885 32.8818 24.1693 32.8578 24.227L30.0138 30.7693H28.3578L31.0758 24.5039C31.1238 24.4 31.1658 24.25 31.2018 24.0539C31.2498 23.8462 31.2678 23.6443 31.2558 23.4481C31.2558 23.2404 31.2198 23.0616 31.1478 22.9116C31.0758 22.7616 30.9558 22.6866 30.7878 22.6866C30.6198 22.6866 30.4338 22.7212 30.2298 22.7904C30.0258 22.8596 29.8158 22.9577 29.5998 23.0846C29.3958 23.2116 29.2038 23.3616 29.0238 23.5346C28.8558 23.6962 28.7238 23.8808 28.6278 24.0885L25.7298 30.7693H24.0738L26.9898 24.0366C27.0498 23.9097 27.0978 23.7712 27.1338 23.6212C27.1698 23.4596 27.1878 23.3097 27.1878 23.1712C27.1998 23.0327 27.1818 22.9173 27.1338 22.825C27.0978 22.7327 27.0378 22.6866 26.9538 22.6866C26.7618 22.6866 26.5878 22.7327 26.4318 22.825C26.2758 22.9058 26.1258 23.0097 25.9818 23.1366C25.8378 23.252 25.6998 23.3789 25.5678 23.5173C25.4358 23.6558 25.3098 23.7827 25.1898 23.8981C25.0698 23.9904 24.9858 23.9789 24.9378 23.8635C24.9018 23.7481 24.9378 23.627 25.0458 23.5C25.1778 23.3385 25.3278 23.177 25.4958 23.0154C25.6638 22.8539 25.8498 22.7096 26.0538 22.5827C26.2578 22.4443 26.4738 22.3346 26.7018 22.2539C26.9418 22.1616 27.1938 22.1154 27.4578 22.1154C27.8418 22.1154 28.1538 22.2481 28.3938 22.5135C28.6338 22.7789 28.7418 23.0904 28.7178 23.4481C28.8498 23.2981 28.9998 23.1481 29.1678 22.9981C29.3478 22.8366 29.5458 22.6923 29.7618 22.5654C29.9778 22.4385 30.2058 22.3346 30.4458 22.2539C30.6858 22.1616 30.9378 22.1154 31.2018 22.1154C31.5018 22.1154 31.7538 22.1616 31.9578 22.2539C32.1738 22.3346 32.3478 22.4385 32.4798 22.5654C32.6118 22.6923 32.7078 22.8308 32.7678 22.9808C32.8398 23.1308 32.8878 23.2693 32.9118 23.3962C33.0438 23.2577 33.1878 23.1135 33.3438 22.9635C33.5118 22.8135 33.7038 22.675 33.9198 22.5481C34.1358 22.4212 34.3758 22.3173 34.6398 22.2366C34.9038 22.1558 35.1978 22.1154 35.5218 22.1154C35.7858 22.1154 36.0198 22.1673 36.2238 22.2712C36.4278 22.3635 36.5898 22.4904 36.7098 22.652C36.8418 22.802 36.9378 22.9693 36.9978 23.1539C37.0698 23.3385 37.1058 23.5173 37.1058 23.6904Z" fill="#172D60"/>
<path d="M43.6298 24.85C43.6298 24.6077 43.6238 24.3596 43.6118 24.1058C43.5998 23.852 43.5578 23.6212 43.4858 23.4135C43.4138 23.1943 43.2938 23.0212 43.1258 22.8943C42.9698 22.7558 42.7418 22.6866 42.4418 22.6866C42.1418 22.6866 41.8478 22.7904 41.5598 22.9981C41.2838 23.2058 41.0198 23.477 40.7678 23.8116C40.5278 24.1462 40.3058 24.5212 40.1018 24.9366C39.8978 25.352 39.7238 25.7673 39.5798 26.1827C39.4358 26.5981 39.3218 26.9904 39.2378 27.3597C39.1538 27.7289 39.1118 28.0347 39.1118 28.277C39.1118 28.5654 39.1298 28.8308 39.1658 29.0731C39.2018 29.3154 39.2738 29.5289 39.3818 29.7135C39.4898 29.8866 39.6518 30.025 39.8678 30.1289C40.0838 30.2327 40.3718 30.2847 40.7318 30.2847C40.9958 30.2847 41.2478 30.1808 41.4878 29.9731C41.7398 29.7654 41.9738 29.5 42.1898 29.177C42.4058 28.8423 42.6038 28.4731 42.7838 28.0693C42.9638 27.6654 43.1138 27.2616 43.2338 26.8577C43.3658 26.4539 43.4618 26.0731 43.5218 25.7154C43.5938 25.3577 43.6298 25.0693 43.6298 24.85ZM45.3578 24.8154C45.3578 25.5308 45.2138 26.2404 44.9258 26.9443C44.6378 27.6481 44.2418 28.2885 43.7378 28.8654C43.2458 29.4308 42.6638 29.8923 41.9918 30.25C41.3318 30.5962 40.6298 30.7693 39.8858 30.7693C39.5378 30.7693 39.2138 30.7289 38.9138 30.6481C38.6138 30.5558 38.3498 30.4289 38.1218 30.2673C37.8938 30.0943 37.7138 29.8808 37.5818 29.627C37.4618 29.3616 37.4018 29.0558 37.4018 28.7096C37.4018 27.9596 37.5398 27.1923 37.8158 26.4077C38.0918 25.6231 38.4758 24.9135 38.9678 24.2789C39.4598 23.6327 40.0418 23.1077 40.7138 22.7039C41.3978 22.3 42.1418 22.0981 42.9458 22.0981C43.3778 22.0981 43.7438 22.1731 44.0438 22.3231C44.3438 22.4616 44.5898 22.6577 44.7818 22.9116C44.9858 23.1539 45.1298 23.4423 45.2138 23.777C45.3098 24.1 45.3578 24.4462 45.3578 24.8154Z" fill="#172D60"/>
<path d="M51.2615 22.4789C51.1535 22.4673 51.0275 22.4616 50.8835 22.4616C50.7395 22.4616 50.5955 22.4616 50.4515 22.4616C50.3195 22.4616 50.1995 22.4616 50.0915 22.4616C49.9835 22.4616 49.9175 22.4616 49.8935 22.4616C49.7375 22.4385 49.6595 22.375 49.6595 22.2712C49.6715 22.1673 49.7495 22.1212 49.8935 22.1327C49.9415 22.1327 49.9775 22.1327 50.0015 22.1327C50.0375 22.1327 50.1575 22.1327 50.3615 22.1327C50.5775 22.1327 50.9195 22.1327 51.3875 22.1327C51.8555 22.1327 52.5515 22.1327 53.4755 22.1327L53.0075 27.2385L56.3015 22.5481C56.3735 22.4789 56.4215 22.3981 56.4455 22.3058C56.4815 22.2135 56.5595 22.1673 56.6795 22.1673H58.6775L56.2295 28.6577C56.1935 28.75 56.1455 28.8596 56.0855 28.9866C56.0375 29.102 55.9895 29.2173 55.9415 29.3327C55.9055 29.4366 55.8695 29.5347 55.8335 29.627C55.7975 29.7193 55.7795 29.7827 55.7795 29.8173C55.7795 29.9327 55.7975 30.0481 55.8335 30.1635C55.8815 30.2789 55.9895 30.3366 56.1575 30.3366C56.2775 30.3366 56.4095 30.302 56.5535 30.2327C56.6975 30.152 56.8355 30.0597 56.9675 29.9558C57.1115 29.8404 57.2435 29.7308 57.3635 29.627C57.4955 29.5116 57.6035 29.4193 57.6875 29.35C57.8195 29.2462 57.8975 29.2577 57.9215 29.3846C57.9455 29.5116 57.8795 29.6443 57.7235 29.7827C57.4235 30.0597 57.0995 30.302 56.7515 30.5096C56.4155 30.7173 56.0195 30.8212 55.5635 30.8212C55.2275 30.8212 54.9215 30.7404 54.6455 30.5789C54.3815 30.4173 54.2495 30.1635 54.2495 29.8173C54.2495 29.702 54.2675 29.575 54.3035 29.4366C54.3515 29.2866 54.4055 29.1366 54.4655 28.9866C54.5255 28.825 54.5855 28.6693 54.6455 28.5193C54.7175 28.3693 54.7775 28.2308 54.8255 28.1039L56.8955 22.4962C55.8515 24.0539 54.9875 25.3289 54.3035 26.3212C53.6315 27.302 53.0855 28.075 52.6655 28.6404C52.2455 29.1943 51.9275 29.5808 51.7115 29.8C51.4955 30.0077 51.3275 30.1289 51.2075 30.1635C51.1475 30.1866 51.0995 30.152 51.0635 30.0597C51.0275 29.9673 51.0095 29.875 51.0095 29.7827L51.7655 22.4443C51.6815 22.675 51.5795 23.0039 51.4595 23.4308C51.3395 23.8462 51.1775 24.3423 50.9735 24.9193C50.7695 25.4846 50.5115 26.125 50.1995 26.8404C49.8995 27.5558 49.5215 28.3173 49.0655 29.125C48.8495 29.4135 48.6155 29.6789 48.3635 29.9212C48.1115 30.1635 47.8415 30.3596 47.5535 30.5096C47.2655 30.6596 46.9595 30.7462 46.6355 30.7693C46.3235 30.7923 45.9995 30.7231 45.6635 30.5616C45.3755 30.4 45.1715 30.1866 45.0515 29.9212C44.9195 29.6443 44.9555 29.2693 45.1595 28.7962C45.2435 28.6231 45.3455 28.4731 45.4655 28.3462C45.5975 28.2077 45.7355 28.0981 45.8795 28.0173C46.0235 27.925 46.1675 27.8673 46.3115 27.8443C46.4675 27.8212 46.6115 27.8443 46.7435 27.9135C46.8635 28.0173 46.8995 28.1558 46.8515 28.3289C46.8035 28.502 46.7495 28.6808 46.6895 28.8654C46.6295 29.05 46.5935 29.2347 46.5815 29.4193C46.5815 29.5923 46.6895 29.7308 46.9055 29.8346C47.2775 29.8923 47.6375 29.7654 47.9855 29.4539C48.3455 29.1423 48.6755 28.7385 48.9755 28.2423C49.2875 27.7346 49.5755 27.1693 49.8395 26.5462C50.1035 25.9231 50.3315 25.3347 50.5235 24.7808C50.7155 24.2154 50.8715 23.7193 50.9915 23.2923C51.1235 22.8654 51.2135 22.5943 51.2615 22.4789Z" fill="#172D60"/>
<path d="M65.5277 23.8289C65.5877 23.6904 65.5877 23.5577 65.5277 23.4308C65.4677 23.2923 65.3717 23.1712 65.2397 23.0673C65.1197 22.952 64.9757 22.8596 64.8077 22.7904C64.6397 22.7212 64.4777 22.6866 64.3217 22.6866C63.9377 22.6866 63.5717 22.8135 63.2237 23.0673C62.8877 23.3096 62.5697 23.627 62.2697 24.0193C61.9697 24.4116 61.6997 24.8558 61.4597 25.352C61.2197 25.8481 61.0097 26.3443 60.8297 26.8404C60.6617 27.3366 60.5297 27.8097 60.4337 28.2597C60.3497 28.6981 60.3077 29.0616 60.3077 29.35C60.3077 29.627 60.3977 29.8462 60.5777 30.0077C60.7577 30.1693 60.9497 30.25 61.1537 30.25C61.2857 30.25 61.4777 30.1693 61.7297 30.0077C61.9817 29.8347 62.2337 29.6443 62.4857 29.4366C62.7497 29.2173 62.9837 28.9981 63.1877 28.7789C63.4037 28.5597 63.5357 28.3981 63.5837 28.2943L65.5277 23.8289ZM64.8617 29.125C64.8257 29.2173 64.7837 29.327 64.7357 29.4539C64.6997 29.5808 64.6817 29.7077 64.6817 29.8346C64.6817 29.95 64.7057 30.0539 64.7537 30.1462C64.8137 30.227 64.9157 30.2673 65.0597 30.2673C65.2397 30.2673 65.4497 30.1808 65.6897 30.0077C65.9417 29.8347 66.2417 29.5981 66.5897 29.2981C66.6497 29.252 66.7037 29.275 66.7517 29.3673C66.7997 29.4481 66.7817 29.5289 66.6977 29.6097C66.5777 29.7481 66.4397 29.8923 66.2837 30.0423C66.1277 30.1808 65.9417 30.3077 65.7257 30.4231C65.5217 30.527 65.2817 30.6193 65.0057 30.7C64.7417 30.7693 64.4357 30.8039 64.0877 30.8039C63.7997 30.8039 63.5837 30.752 63.4397 30.6481C63.2957 30.5327 63.1997 30.3943 63.1517 30.2327C63.1157 30.0712 63.1097 29.8981 63.1337 29.7135C63.1577 29.5173 63.1937 29.3385 63.2417 29.177C63.0617 29.35 62.8577 29.5347 62.6297 29.7308C62.4137 29.927 62.1797 30.1116 61.9277 30.2847C61.6757 30.4462 61.4177 30.5846 61.1537 30.7C60.8897 30.8154 60.6257 30.8731 60.3617 30.8731C59.8217 30.8731 59.4257 30.7462 59.1737 30.4923C58.9337 30.227 58.8137 29.8 58.8137 29.2116C58.8137 28.7154 58.8737 28.1962 58.9937 27.6539C59.1257 27.1116 59.3117 26.5808 59.5517 26.0616C59.7917 25.5308 60.0857 25.0289 60.4337 24.5558C60.7817 24.0712 61.1717 23.65 61.6037 23.2923C62.0357 22.9346 62.5037 22.652 63.0077 22.4443C63.5237 22.225 64.0697 22.1154 64.6457 22.1154C64.9577 22.1154 65.2217 22.2193 65.4377 22.427C65.6657 22.6231 65.8097 22.8827 65.8697 23.2058L66.2477 22.375H67.8497L64.8617 29.125Z" fill="#172D60"/>
<path d="M81.016 23.6904C81.016 23.8289 80.98 23.9962 80.908 24.1923C80.848 24.3885 80.782 24.5673 80.71 24.7289L79.018 28.6058C78.922 28.802 78.82 29.0097 78.712 29.2289C78.616 29.4481 78.568 29.6212 78.568 29.7481C78.568 29.8635 78.586 29.9847 78.622 30.1116C78.67 30.227 78.778 30.2847 78.946 30.2847C79.066 30.2847 79.198 30.25 79.342 30.1808C79.486 30.1 79.624 30.0077 79.756 29.9039C79.9 29.7885 80.032 29.6789 80.152 29.575C80.284 29.4596 80.392 29.3673 80.476 29.2981C80.608 29.1943 80.686 29.2058 80.71 29.3327C80.734 29.4597 80.668 29.5923 80.512 29.7308C80.212 30.0077 79.888 30.25 79.54 30.4577C79.204 30.6654 78.808 30.7693 78.352 30.7693C78.016 30.7693 77.716 30.6885 77.452 30.527C77.2 30.3654 77.074 30.1116 77.074 29.7654C77.074 29.5346 77.122 29.2866 77.218 29.0212C77.314 28.7443 77.446 28.4212 77.614 28.052L79.126 24.5558C79.198 24.3827 79.252 24.1923 79.288 23.9847C79.336 23.7654 79.348 23.5635 79.324 23.3789C79.312 23.1827 79.264 23.0212 79.18 22.8943C79.096 22.7558 78.97 22.6866 78.802 22.6866C78.658 22.6866 78.502 22.7154 78.334 22.7731C78.166 22.8308 77.992 22.9058 77.812 22.9981C77.644 23.0904 77.476 23.2058 77.308 23.3443C77.152 23.4712 77.014 23.6039 76.894 23.7423C76.894 23.7885 76.876 23.8693 76.84 23.9847C76.816 24.0885 76.792 24.1693 76.768 24.227L73.924 30.7693H72.268L74.986 24.5039C75.034 24.4 75.076 24.25 75.112 24.0539C75.16 23.8462 75.178 23.6443 75.166 23.4481C75.166 23.2404 75.13 23.0616 75.058 22.9116C74.986 22.7616 74.866 22.6866 74.698 22.6866C74.53 22.6866 74.344 22.7212 74.14 22.7904C73.936 22.8596 73.726 22.9577 73.51 23.0846C73.306 23.2116 73.114 23.3616 72.934 23.5346C72.766 23.6962 72.634 23.8808 72.538 24.0885L69.64 30.7693H67.984L70.9 24.0366C70.96 23.9097 71.008 23.7712 71.044 23.6212C71.08 23.4596 71.098 23.3097 71.098 23.1712C71.11 23.0327 71.092 22.9173 71.044 22.825C71.008 22.7327 70.948 22.6866 70.864 22.6866C70.672 22.6866 70.498 22.7327 70.342 22.825C70.186 22.9058 70.036 23.0097 69.892 23.1366C69.748 23.252 69.61 23.3789 69.478 23.5173C69.346 23.6558 69.22 23.7827 69.1 23.8981C68.98 23.9904 68.896 23.9789 68.848 23.8635C68.812 23.7481 68.848 23.627 68.956 23.5C69.088 23.3385 69.238 23.177 69.406 23.0154C69.574 22.8539 69.76 22.7096 69.964 22.5827C70.168 22.4443 70.384 22.3346 70.612 22.2539C70.852 22.1616 71.104 22.1154 71.368 22.1154C71.752 22.1154 72.064 22.2481 72.304 22.5135C72.544 22.7789 72.652 23.0904 72.628 23.4481C72.76 23.2981 72.91 23.1481 73.078 22.9981C73.258 22.8366 73.456 22.6923 73.672 22.5654C73.888 22.4385 74.116 22.3346 74.356 22.2539C74.596 22.1616 74.848 22.1154 75.112 22.1154C75.412 22.1154 75.664 22.1616 75.868 22.2539C76.084 22.3346 76.258 22.4385 76.39 22.5654C76.522 22.6923 76.618 22.8308 76.678 22.9808C76.75 23.1308 76.798 23.2693 76.822 23.3962C76.954 23.2577 77.098 23.1135 77.254 22.9635C77.422 22.8135 77.614 22.675 77.83 22.5481C78.046 22.4212 78.286 22.3173 78.55 22.2366C78.814 22.1558 79.108 22.1154 79.432 22.1154C79.696 22.1154 79.93 22.1673 80.134 22.2712C80.338 22.3635 80.5 22.4904 80.62 22.652C80.752 22.802 80.848 22.9693 80.908 23.1539C80.98 23.3385 81.016 23.5173 81.016 23.6904Z" fill="#172D60"/>
<path d="M87.54 24.85C87.54 24.6077 87.534 24.3596 87.522 24.1058C87.51 23.852 87.468 23.6212 87.396 23.4135C87.324 23.1943 87.204 23.0212 87.036 22.8943C86.88 22.7558 86.652 22.6866 86.352 22.6866C86.052 22.6866 85.758 22.7904 85.47 22.9981C85.194 23.2058 84.93 23.477 84.678 23.8116C84.438 24.1462 84.216 24.5212 84.012 24.9366C83.808 25.352 83.634 25.7673 83.49 26.1827C83.346 26.5981 83.232 26.9904 83.148 27.3597C83.064 27.7289 83.022 28.0347 83.022 28.277C83.022 28.5654 83.04 28.8308 83.076 29.0731C83.112 29.3154 83.184 29.5289 83.292 29.7135C83.4 29.8866 83.562 30.025 83.778 30.1289C83.994 30.2327 84.282 30.2847 84.642 30.2847C84.906 30.2847 85.158 30.1808 85.398 29.9731C85.65 29.7654 85.884 29.5 86.1 29.177C86.316 28.8423 86.514 28.4731 86.694 28.0693C86.874 27.6654 87.024 27.2616 87.144 26.8577C87.276 26.4539 87.372 26.0731 87.432 25.7154C87.504 25.3577 87.54 25.0693 87.54 24.85ZM89.268 24.8154C89.268 25.5308 89.124 26.2404 88.836 26.9443C88.548 27.6481 88.152 28.2885 87.648 28.8654C87.156 29.4308 86.574 29.8923 85.902 30.25C85.242 30.5962 84.54 30.7693 83.796 30.7693C83.448 30.7693 83.124 30.7289 82.824 30.6481C82.524 30.5558 82.26 30.4289 82.032 30.2673C81.804 30.0943 81.624 29.8808 81.492 29.627C81.372 29.3616 81.312 29.0558 81.312 28.7096C81.312 27.9596 81.45 27.1923 81.726 26.4077C82.002 25.6231 82.386 24.9135 82.878 24.2789C83.37 23.6327 83.952 23.1077 84.624 22.7039C85.308 22.3 86.052 22.0981 86.856 22.0981C87.288 22.0981 87.654 22.1731 87.954 22.3231C88.254 22.4616 88.5 22.6577 88.692 22.9116C88.896 23.1539 89.04 23.4423 89.124 23.777C89.22 24.1 89.268 24.4462 89.268 24.8154Z" fill="#172D60"/>
<path d="M95.5677 22.4443C95.4477 22.6635 95.3277 22.9866 95.2077 23.4135C95.0877 23.8404 94.9317 24.3423 94.7397 24.9193C94.5597 25.4962 94.3197 26.1423 94.0197 26.8577C93.7197 27.5731 93.3297 28.3289 92.8497 29.125C92.6337 29.4135 92.4057 29.6789 92.1657 29.9212C91.9257 30.1635 91.6677 30.3596 91.3917 30.5096C91.1277 30.6596 90.8397 30.7462 90.5277 30.7693C90.2277 30.7923 89.9097 30.7231 89.5737 30.5616C89.2857 30.4 89.0817 30.1866 88.9617 29.9212C88.8297 29.6443 88.8657 29.2693 89.0697 28.7962C89.1537 28.6231 89.2557 28.4731 89.3757 28.3462C89.5077 28.2077 89.6457 28.0981 89.7897 28.0173C89.9337 27.925 90.0777 27.8673 90.2217 27.8443C90.3777 27.8212 90.5217 27.8443 90.6537 27.9135C90.7737 28.0173 90.8097 28.1558 90.7617 28.3289C90.7137 28.502 90.6597 28.6808 90.5997 28.8654C90.5397 29.05 90.5037 29.2347 90.4917 29.4193C90.4917 29.5923 90.5997 29.7308 90.8157 29.8346C91.1757 29.8808 91.5177 29.7481 91.8417 29.4366C92.1777 29.1135 92.4897 28.6981 92.7777 28.1904C93.0657 27.6712 93.3297 27.1058 93.5697 26.4943C93.8217 25.8712 94.0437 25.2827 94.2357 24.7289C94.4277 24.1635 94.5837 23.6731 94.7037 23.2577C94.8357 22.8423 94.9317 22.5827 94.9917 22.4789C94.8837 22.4673 94.7577 22.4616 94.6137 22.4616C94.4817 22.4616 94.3497 22.4616 94.2177 22.4616C94.0977 22.4616 93.9837 22.4616 93.8757 22.4616C93.7797 22.4616 93.7197 22.4616 93.6957 22.4616C93.5397 22.4385 93.4617 22.375 93.4617 22.2712C93.4737 22.1673 93.5517 22.1212 93.6957 22.1327C93.7797 22.1327 93.9177 22.1327 94.1097 22.1327C94.3017 22.1327 94.5957 22.1327 94.9917 22.1327C95.3877 22.1327 95.9037 22.1327 96.5397 22.1327C97.1877 22.1212 98.0037 22.1154 98.9877 22.1154L96.5757 28.6058C96.5397 28.6981 96.4917 28.8077 96.4317 28.9347C96.3837 29.05 96.3357 29.1654 96.2877 29.2808C96.2517 29.3846 96.2157 29.4827 96.1797 29.575C96.1437 29.6673 96.1257 29.7308 96.1257 29.7654C96.1257 29.8808 96.1437 29.9962 96.1797 30.1116C96.2277 30.227 96.3357 30.2847 96.5037 30.2847C96.6237 30.2847 96.7557 30.25 96.8997 30.1808C97.0437 30.1 97.1817 30.0077 97.3137 29.9039C97.4577 29.7885 97.5897 29.6789 97.7097 29.575C97.8417 29.4596 97.9497 29.3673 98.0337 29.2981C98.1657 29.1943 98.2437 29.2058 98.2677 29.3327C98.2917 29.4597 98.2257 29.5923 98.0697 29.7308C97.7697 30.0077 97.4457 30.25 97.0977 30.4577C96.7617 30.6654 96.3657 30.7693 95.9097 30.7693C95.5737 30.7693 95.2677 30.6885 94.9917 30.527C94.7277 30.3654 94.5957 30.1116 94.5957 29.7654C94.5957 29.65 94.6137 29.5231 94.6497 29.3846C94.6977 29.2346 94.7517 29.0847 94.8117 28.9347C94.8717 28.7731 94.9317 28.6173 94.9917 28.4673C95.0637 28.3173 95.1237 28.1789 95.1717 28.052L97.2597 22.4443H95.5677Z" fill="#172D60"/>
<path d="M105.505 24.85C105.505 24.6077 105.499 24.3596 105.487 24.1058C105.475 23.852 105.433 23.6212 105.361 23.4135C105.289 23.1943 105.169 23.0212 105.001 22.8943C104.845 22.7558 104.617 22.6866 104.317 22.6866C104.017 22.6866 103.723 22.7904 103.435 22.9981C103.159 23.2058 102.895 23.477 102.643 23.8116C102.403 24.1462 102.181 24.5212 101.977 24.9366C101.773 25.352 101.599 25.7673 101.455 26.1827C101.311 26.5981 101.197 26.9904 101.113 27.3597C101.029 27.7289 100.987 28.0347 100.987 28.277C100.987 28.5654 101.005 28.8308 101.041 29.0731C101.077 29.3154 101.149 29.5289 101.257 29.7135C101.365 29.8866 101.527 30.025 101.743 30.1289C101.959 30.2327 102.247 30.2847 102.607 30.2847C102.871 30.2847 103.123 30.1808 103.363 29.9731C103.615 29.7654 103.849 29.5 104.065 29.177C104.281 28.8423 104.479 28.4731 104.659 28.0693C104.839 27.6654 104.989 27.2616 105.109 26.8577C105.241 26.4539 105.337 26.0731 105.397 25.7154C105.469 25.3577 105.505 25.0693 105.505 24.85ZM107.233 24.8154C107.233 25.5308 107.089 26.2404 106.801 26.9443C106.513 27.6481 106.117 28.2885 105.613 28.8654C105.121 29.4308 104.539 29.8923 103.867 30.25C103.207 30.5962 102.505 30.7693 101.761 30.7693C101.413 30.7693 101.089 30.7289 100.789 30.6481C100.489 30.5558 100.225 30.4289 99.9968 30.2673C99.7688 30.0943 99.5888 29.8808 99.4568 29.627C99.3368 29.3616 99.2768 29.0558 99.2768 28.7096C99.2768 27.9596 99.4148 27.1923 99.6908 26.4077C99.9668 25.6231 100.351 24.9135 100.843 24.2789C101.335 23.6327 101.917 23.1077 102.589 22.7039C103.273 22.3 104.017 22.0981 104.821 22.0981C105.253 22.0981 105.619 22.1731 105.919 22.3231C106.219 22.4616 106.465 22.6577 106.657 22.9116C106.861 23.1539 107.005 23.4423 107.089 23.777C107.185 24.1 107.233 24.4462 107.233 24.8154Z" fill="#172D60"/>
<path d="M112.615 22.0808C112.759 22.0808 112.939 22.0981 113.155 22.1327C113.383 22.1673 113.605 22.2423 113.821 22.3577C114.037 22.4731 114.223 22.6404 114.379 22.8596C114.535 23.0789 114.613 23.3731 114.613 23.7423C114.613 24.1 114.529 24.4 114.361 24.6423C114.205 24.8847 114.007 25.0923 113.767 25.2654C113.539 25.427 113.287 25.5654 113.011 25.6808C112.747 25.7846 112.501 25.8885 112.273 25.9923C111.973 26.1077 111.661 26.2577 111.337 26.4423C111.025 26.627 110.737 26.8404 110.473 27.0827C110.209 27.325 109.993 27.5962 109.825 27.8962C109.657 28.1962 109.573 28.525 109.573 28.8827C109.573 29.0212 109.591 29.1654 109.627 29.3154C109.663 29.4539 109.723 29.5866 109.807 29.7135C109.891 29.8404 109.999 29.9443 110.131 30.025C110.275 30.1058 110.455 30.1462 110.671 30.1462C110.803 30.1462 110.965 30.1289 111.157 30.0943C111.349 30.0481 111.553 29.9789 111.769 29.8866C111.985 29.7943 112.195 29.6731 112.399 29.5231C112.603 29.3731 112.777 29.1885 112.921 28.9693C113.017 28.8308 113.101 28.7154 113.173 28.6231C113.245 28.5193 113.323 28.4673 113.407 28.4673C113.503 28.4673 113.551 28.5077 113.551 28.5885C113.551 28.7847 113.443 29.0154 113.227 29.2808C113.023 29.5462 112.795 29.777 112.543 29.9731C112.123 30.3077 111.691 30.527 111.247 30.6308C110.815 30.7231 110.383 30.7635 109.951 30.752C109.651 30.752 109.363 30.7289 109.087 30.6827C108.823 30.625 108.583 30.5327 108.367 30.4058C108.163 30.2673 107.995 30.0885 107.863 29.8693C107.743 29.65 107.683 29.3731 107.683 29.0385C107.683 28.6693 107.779 28.3058 107.971 27.9481C108.175 27.5789 108.565 27.2097 109.141 26.8404C109.333 26.725 109.507 26.627 109.663 26.5462C109.819 26.4539 109.981 26.3673 110.149 26.2866C110.317 26.2058 110.491 26.1193 110.671 26.027C110.863 25.9231 111.085 25.7962 111.337 25.6462C111.493 25.5539 111.661 25.4558 111.841 25.352C112.021 25.2366 112.189 25.1097 112.345 24.9712C112.501 24.8212 112.627 24.6423 112.723 24.4346C112.819 24.227 112.867 23.9731 112.867 23.6731C112.867 23.6039 112.849 23.5116 112.813 23.3962C112.777 23.2808 112.717 23.1712 112.633 23.0673C112.549 22.952 112.441 22.8539 112.309 22.7731C112.177 22.6923 112.015 22.652 111.823 22.652C111.391 22.652 111.025 22.7904 110.725 23.0673C110.437 23.3327 110.119 23.6962 109.771 24.1577C109.735 24.2154 109.687 24.2731 109.627 24.3308C109.579 24.377 109.525 24.4 109.465 24.4C109.429 24.4 109.393 24.3885 109.357 24.3654C109.321 24.3308 109.303 24.2846 109.303 24.227C109.303 24.0885 109.363 23.9327 109.483 23.7596C109.603 23.575 109.747 23.402 109.915 23.2404C110.095 23.0673 110.281 22.9116 110.473 22.7731C110.677 22.6231 110.857 22.5077 111.013 22.427C111.181 22.3347 111.391 22.2539 111.643 22.1846C111.907 22.1154 112.231 22.0808 112.615 22.0808Z" fill="#172D60"/>
<path d="M121.419 29.1943C121.371 29.2981 121.329 29.4135 121.293 29.5404C121.257 29.6673 121.239 29.7827 121.239 29.8866C121.251 29.9904 121.281 30.0827 121.329 30.1635C121.389 30.2327 121.491 30.2673 121.635 30.2673C121.743 30.2673 121.869 30.227 122.013 30.1462C122.169 30.0654 122.319 29.9731 122.463 29.8693C122.607 29.7539 122.745 29.6385 122.877 29.5231C123.009 29.4077 123.117 29.3154 123.201 29.2462C123.249 29.2 123.303 29.2173 123.363 29.2981C123.423 29.3673 123.411 29.4481 123.327 29.5404C122.955 29.9443 122.589 30.25 122.229 30.4577C121.881 30.6654 121.437 30.7693 120.897 30.7693C120.441 30.7693 120.105 30.625 119.889 30.3366C119.685 30.0481 119.649 29.7077 119.781 29.3154C119.613 29.5 119.433 29.6789 119.241 29.852C119.049 30.025 118.833 30.1808 118.593 30.3193C118.353 30.4577 118.077 30.5673 117.765 30.6481C117.465 30.7289 117.117 30.7693 116.721 30.7693C116.409 30.7693 116.151 30.7058 115.947 30.5789C115.755 30.4404 115.611 30.2673 115.515 30.0597C115.431 29.8404 115.395 29.5923 115.407 29.3154C115.431 29.027 115.509 28.7327 115.641 28.4327L117.711 23.6039C117.747 23.5346 117.789 23.4481 117.837 23.3443C117.885 23.2289 117.915 23.125 117.927 23.0327C117.951 22.9404 117.945 22.8596 117.909 22.7904C117.885 22.7212 117.807 22.6866 117.675 22.6866C117.531 22.6866 117.381 22.7327 117.225 22.825C117.069 22.9058 116.919 23.0097 116.775 23.1366C116.631 23.252 116.493 23.3846 116.361 23.5346C116.241 23.6731 116.145 23.7943 116.073 23.8981C116.061 23.9212 116.031 23.9327 115.983 23.9327C115.947 23.9327 115.905 23.927 115.857 23.9154C115.821 23.8923 115.791 23.8635 115.767 23.8289C115.743 23.7943 115.743 23.7596 115.767 23.725C116.115 23.2404 116.505 22.8481 116.937 22.5481C117.381 22.2481 117.927 22.0981 118.575 22.0981C119.127 22.0981 119.445 22.2366 119.529 22.5135C119.625 22.7789 119.577 23.1423 119.385 23.6039L117.207 28.6058C117.147 28.7443 117.093 28.9116 117.045 29.1077C116.997 29.2923 116.973 29.4712 116.973 29.6443C116.973 29.8173 117.003 29.9673 117.063 30.0943C117.135 30.2212 117.261 30.2847 117.441 30.2847C117.741 30.2847 118.047 30.1981 118.359 30.025C118.671 29.852 118.959 29.6385 119.223 29.3846C119.487 29.1308 119.721 28.8654 119.925 28.5885C120.129 28.3116 120.273 28.0693 120.357 27.8616L122.157 23.725C122.253 23.4943 122.211 23.2866 122.031 23.102C121.935 22.9981 121.917 22.9289 121.977 22.8943C122.037 22.8596 122.121 22.8193 122.229 22.7731L124.299 21.977C124.431 21.9308 124.515 21.9135 124.551 21.925C124.599 21.925 124.617 21.9481 124.605 21.9943C124.605 22.0289 124.581 22.0808 124.533 22.15C124.497 22.2077 124.461 22.277 124.425 22.3577L121.419 29.1943Z" fill="#172D60"/>
<path d="M127.595 30.1981C127.319 30.3943 127.037 30.5385 126.749 30.6308C126.473 30.7231 126.167 30.7693 125.831 30.7693C125.663 30.7693 125.477 30.752 125.273 30.7173C125.069 30.6827 124.883 30.6135 124.715 30.5096C124.547 30.3943 124.415 30.2443 124.319 30.0597C124.235 29.8635 124.223 29.6097 124.283 29.2981C124.343 29.0097 124.433 28.8193 124.553 28.727C124.673 28.6346 124.793 28.5943 124.913 28.6058C125.045 28.6173 125.159 28.6635 125.255 28.7443C125.363 28.8135 125.435 28.8654 125.471 28.9C125.543 28.9808 125.555 29.102 125.507 29.2635C125.459 29.425 125.411 29.5866 125.363 29.7481C125.315 29.8981 125.297 30.0366 125.309 30.1635C125.321 30.2904 125.429 30.3597 125.633 30.3712C125.825 30.3827 125.999 30.325 126.155 30.1981C126.323 30.0597 126.485 29.8808 126.641 29.6616C126.797 29.4308 126.959 29.177 127.127 28.9C127.295 28.6231 127.481 28.3462 127.685 28.0693C127.901 27.7923 128.147 27.5327 128.423 27.2904C128.699 27.0366 129.017 26.8346 129.377 26.6846C129.533 26.6154 129.653 26.5635 129.737 26.5289C129.821 26.4827 129.893 26.4481 129.953 26.425C130.025 26.402 130.097 26.3847 130.169 26.3731C130.253 26.3616 130.367 26.3443 130.511 26.3212V26.2866C130.019 26.2866 129.599 26.2404 129.251 26.1481C128.903 26.0443 128.615 25.9116 128.387 25.75C128.171 25.577 128.009 25.3808 127.901 25.1616C127.805 24.9423 127.757 24.7116 127.757 24.4693C127.757 23.9385 127.901 23.5116 128.189 23.1885C128.477 22.8654 128.813 22.6231 129.197 22.4616C129.581 22.2885 129.971 22.1789 130.367 22.1327C130.763 22.075 131.063 22.0462 131.267 22.0462C131.279 22.0462 131.363 22.0462 131.519 22.0462C131.675 22.0462 131.873 22.0462 132.113 22.0462C132.353 22.0462 132.611 22.052 132.887 22.0635C133.175 22.0635 133.445 22.0635 133.697 22.0635C133.925 22.075 134.147 22.0808 134.363 22.0808C134.579 22.0808 134.777 22.0923 134.957 22.1154L132.545 28.6058C132.509 28.6981 132.461 28.8077 132.401 28.9347C132.353 29.05 132.305 29.1654 132.257 29.2808C132.221 29.3846 132.185 29.4827 132.149 29.575C132.113 29.6673 132.095 29.7308 132.095 29.7654C132.095 29.8808 132.113 29.9962 132.149 30.1116C132.197 30.227 132.305 30.2847 132.473 30.2847C132.593 30.2847 132.725 30.25 132.869 30.1808C133.013 30.1 133.151 30.0077 133.283 29.9039C133.427 29.7885 133.559 29.6789 133.679 29.575C133.811 29.4596 133.919 29.3673 134.003 29.2981C134.135 29.1943 134.213 29.2058 134.237 29.3327C134.261 29.4597 134.195 29.5923 134.039 29.7308C133.739 30.0077 133.415 30.25 133.067 30.4577C132.731 30.6654 132.335 30.7693 131.879 30.7693C131.543 30.7693 131.237 30.6885 130.961 30.527C130.697 30.3654 130.565 30.1116 130.565 29.7654C130.565 29.65 130.583 29.5231 130.619 29.3846C130.667 29.2346 130.721 29.0847 130.781 28.9347C130.841 28.7731 130.901 28.6173 130.961 28.4673C131.033 28.3173 131.093 28.1789 131.141 28.052L131.717 26.5116C131.285 26.5116 130.901 26.65 130.565 26.927C130.229 27.1923 129.905 27.5154 129.593 27.8962C129.293 28.277 128.987 28.6808 128.675 29.1077C128.363 29.5231 128.003 29.8866 127.595 30.1981ZM133.229 22.5654C133.193 22.5654 133.103 22.5654 132.959 22.5654C132.815 22.5539 132.737 22.5481 132.725 22.5481C132.713 22.5481 132.713 22.5423 132.725 22.5308H132.581C132.305 22.5308 131.999 22.5481 131.663 22.5827C131.327 22.6173 131.003 22.6981 130.691 22.825C130.391 22.9404 130.127 23.1193 129.899 23.3616C129.671 23.6039 129.533 23.9327 129.485 24.3481C129.449 24.625 129.467 24.8616 129.539 25.0577C129.623 25.2539 129.737 25.4212 129.881 25.5596C130.037 25.6866 130.217 25.7904 130.421 25.8712C130.625 25.9404 130.835 25.9923 131.051 26.027C131.063 26.027 131.105 26.0327 131.177 26.0443C131.249 26.0443 131.327 26.0443 131.411 26.0443C131.507 26.0443 131.597 26.0443 131.681 26.0443C131.777 26.0443 131.849 26.0443 131.897 26.0443L133.229 22.5654Z" fill="#172D60"/>
<path d="M152.912 19.1693C152.912 19.5962 152.846 20.0866 152.714 20.6404C152.582 21.1827 152.396 21.7423 152.156 22.3193C151.928 22.8962 151.646 23.4616 151.31 24.0154C150.974 24.5577 150.596 25.0481 150.176 25.4866C149.768 25.9135 149.324 26.2597 148.844 26.525C148.364 26.7904 147.866 26.9231 147.35 26.9231C146.462 26.9231 145.928 26.5135 145.748 25.6943C145.316 25.902 144.938 26.075 144.614 26.2135C144.302 26.352 143.972 26.4673 143.624 26.5597C143.288 26.6404 142.916 26.7039 142.508 26.75C142.1 26.7847 141.59 26.802 140.978 26.802C140.474 26.802 139.958 26.7789 139.43 26.7327C138.914 26.6866 138.404 26.652 137.9 26.6289C137.972 25.8904 138.374 25.5212 139.106 25.5212C139.502 25.5212 139.892 25.5731 140.276 25.677C140.672 25.7808 141.068 25.8327 141.464 25.8327C141.872 25.8327 142.28 25.8327 142.688 25.8327C143.108 25.8212 143.522 25.7866 143.93 25.7289C144.338 25.6712 144.734 25.5789 145.118 25.452C145.502 25.3135 145.862 25.1173 146.198 24.8635C146.246 25.002 146.27 25.1635 146.27 25.3481C146.282 25.5212 146.306 25.6885 146.342 25.85C146.39 26.0116 146.474 26.15 146.594 26.2654C146.714 26.3808 146.912 26.4385 147.188 26.4385C147.644 26.4385 148.064 26.3231 148.448 26.0923C148.844 25.85 149.198 25.5443 149.51 25.175C149.822 24.7943 150.098 24.3616 150.338 23.877C150.578 23.3923 150.776 22.902 150.932 22.4058C151.1 21.8981 151.22 21.4135 151.292 20.952C151.376 20.4789 151.418 20.0635 151.418 19.7058C151.418 19.2212 151.382 18.7827 151.31 18.3904C151.238 17.9981 151.118 17.6289 150.95 17.2827C150.794 16.9366 150.59 16.602 150.338 16.2789C150.086 15.9558 149.786 15.6212 149.438 15.275C149.042 15.7481 148.7 16.1923 148.412 16.6077C148.136 17.0231 147.89 17.4327 147.674 17.8366C147.458 18.2404 147.26 18.65 147.08 19.0654C146.912 19.4693 146.732 19.8962 146.54 20.3462C146.3 20.9346 146.042 21.5058 145.766 22.0597C145.49 22.602 145.16 23.0981 144.776 23.5481C144.392 23.9981 143.936 24.3847 143.408 24.7077C142.892 25.0193 142.268 25.2327 141.536 25.3481C142.1 25.002 142.568 24.5808 142.94 24.0847C143.312 23.5885 143.63 23.075 143.894 22.5443C144.158 22.002 144.38 21.477 144.56 20.9693C144.752 20.4616 144.944 20.0231 145.136 19.6539C145.376 19.1923 145.634 18.7423 145.91 18.3039C146.198 17.8539 146.51 17.4385 146.846 17.0577C147.194 16.6654 147.572 16.3135 147.98 16.002C148.388 15.6904 148.844 15.4308 149.348 15.2231C148.7 14.8539 148.016 14.5943 147.296 14.4443C146.576 14.2827 145.85 14.202 145.118 14.202C144.614 14.202 144.062 14.2654 143.462 14.3923C142.874 14.5077 142.322 14.6981 141.806 14.9635C141.302 15.2173 140.876 15.552 140.528 15.9673C140.18 16.3827 140.006 16.8847 140.006 17.4731C140.006 17.9923 140.186 18.4193 140.546 18.7539C140.918 19.077 141.374 19.2385 141.914 19.2385C142.178 19.2385 142.436 19.1866 142.688 19.0827C142.952 18.9789 143.198 18.8577 143.426 18.7193C143.654 18.5693 143.852 18.4193 144.02 18.2693C144.2 18.1193 144.332 17.9981 144.416 17.9058C144.452 17.8712 144.476 17.8885 144.488 17.9577C144.512 18.027 144.512 18.0846 144.488 18.1308C144.404 18.2923 144.248 18.4596 144.02 18.6327C143.792 18.8058 143.54 18.9673 143.264 19.1173C142.988 19.2558 142.706 19.3712 142.418 19.4635C142.13 19.5558 141.878 19.602 141.662 19.602C141.374 19.602 141.092 19.55 140.816 19.4462C140.552 19.3423 140.312 19.2039 140.096 19.0308C139.892 18.8462 139.724 18.6327 139.592 18.3904C139.472 18.1366 139.412 17.8712 139.412 17.5943C139.412 17.1096 139.514 16.6596 139.718 16.2443C139.922 15.8289 140.192 15.4596 140.528 15.1366C140.876 14.802 141.272 14.5077 141.716 14.2539C142.172 14 142.64 13.7923 143.12 13.6308C143.612 13.4577 144.104 13.3308 144.596 13.25C145.088 13.1577 145.55 13.1116 145.982 13.1116C146.93 13.1116 147.824 13.2443 148.664 13.5096C149.516 13.775 150.254 14.1673 150.878 14.6866C151.502 15.1943 151.994 15.8289 152.354 16.5904C152.726 17.3404 152.912 18.2 152.912 19.1693Z" fill="#172D60"/>
<path d="M168.912 17.2346C168.912 17.4077 168.78 17.7423 168.516 18.2385C168.252 18.7231 167.922 19.3058 167.526 19.9866C167.142 20.6558 166.722 21.3943 166.266 22.202C165.822 22.9981 165.402 23.7885 165.006 24.5731C164.622 25.3577 164.304 26.102 164.052 26.8058C163.8 27.5097 163.68 28.1096 163.692 28.6058C163.692 28.675 163.686 28.7789 163.674 28.9173C163.662 29.0558 163.668 29.1943 163.692 29.3327C163.728 29.4712 163.788 29.5923 163.872 29.6962C163.956 29.8 164.094 29.852 164.286 29.852C164.466 29.852 164.628 29.8173 164.772 29.7481C164.916 29.6789 165.048 29.5923 165.168 29.4885C165.3 29.3731 165.42 29.252 165.528 29.125C165.636 28.9866 165.744 28.8597 165.852 28.7443C165.9 28.6866 165.948 28.6635 165.996 28.675C166.056 28.6866 166.104 28.7212 166.14 28.7789C166.176 28.8366 166.194 28.9116 166.194 29.0039C166.194 29.0846 166.158 29.1712 166.086 29.2635C165.798 29.6904 165.426 30.0481 164.97 30.3366C164.526 30.625 164.034 30.7693 163.494 30.7693C163.002 30.7693 162.642 30.6135 162.414 30.302C162.198 29.9904 162.09 29.6212 162.09 29.1943C162.09 28.2366 162.294 27.2212 162.702 26.1481C163.11 25.0635 163.614 23.9904 164.214 22.9289C164.826 21.8673 165.48 20.852 166.176 19.8827C166.872 18.9135 167.508 18.0539 168.084 17.3039C167.628 17.2693 167.142 17.3962 166.626 17.6846C166.122 17.9731 165.606 18.377 165.078 18.8962C164.562 19.4039 164.04 19.9981 163.512 20.6789C162.996 21.3596 162.492 22.0808 162 22.8423C161.508 23.6039 161.034 24.377 160.578 25.1616C160.122 25.9347 159.702 26.6731 159.318 27.377C158.946 28.0808 158.61 28.7212 158.31 29.2981C158.01 29.875 157.77 30.3366 157.59 30.6827L156.906 30.7866C157.086 30.0712 157.278 29.3731 157.482 28.6923C157.698 28.0116 157.89 27.3308 158.058 26.65C158.238 25.9577 158.388 25.2597 158.508 24.5558C158.628 23.852 158.688 23.125 158.688 22.375C158.688 21.7404 158.616 21.1231 158.472 20.5231C158.328 19.9116 158.076 19.3289 157.716 18.775C157.74 19.3058 157.656 19.975 157.464 20.7827C157.284 21.5904 157.014 22.45 156.654 23.3616C156.306 24.2616 155.868 25.1616 155.34 26.0616C154.824 26.9616 154.242 27.775 153.594 28.502C152.946 29.2289 152.238 29.8173 151.47 30.2673C150.714 30.7173 149.916 30.9423 149.076 30.9423C148.632 30.9423 148.188 30.925 147.744 30.8904C147.312 30.8558 146.916 30.752 146.556 30.5789C146.208 30.4058 145.92 30.1404 145.692 29.7827C145.476 29.425 145.368 28.9173 145.368 28.2597C145.368 27.7058 145.512 27.2673 145.8 26.9443C146.088 26.6097 146.424 26.3558 146.808 26.1827C147.204 25.9981 147.606 25.8827 148.014 25.8366C148.422 25.7789 148.746 25.75 148.986 25.75C149.154 25.75 149.358 25.7731 149.598 25.8193C149.838 25.8539 150.072 25.9058 150.3 25.975C150.54 26.0443 150.762 26.1308 150.966 26.2347C151.17 26.3385 151.32 26.4596 151.416 26.5981L151.2 26.65C151.044 26.65 150.882 26.6212 150.714 26.5635C150.558 26.5058 150.39 26.4481 150.21 26.3904C150.042 26.3212 149.862 26.2577 149.67 26.2C149.478 26.1423 149.274 26.1135 149.058 26.1135C148.77 26.1135 148.47 26.1654 148.158 26.2693C147.858 26.3616 147.582 26.5 147.33 26.6846C147.078 26.8577 146.868 27.0712 146.7 27.325C146.544 27.5789 146.466 27.8616 146.466 28.1731C146.466 28.9116 146.682 29.477 147.114 29.8693C147.558 30.25 148.158 30.4404 148.914 30.4404C149.706 30.4404 150.468 30.2327 151.2 29.8173C151.932 29.402 152.61 28.8539 153.234 28.1731C153.87 27.4923 154.44 26.725 154.944 25.8712C155.46 25.0058 155.898 24.1289 156.258 23.2404C156.618 22.352 156.888 21.4866 157.068 20.6443C157.26 19.802 157.344 19.0635 157.32 18.4289C157.128 18.2096 156.888 18.0308 156.6 17.8923C156.324 17.7423 156.036 17.627 155.736 17.5462C155.436 17.4539 155.142 17.3904 154.854 17.3558C154.578 17.3212 154.344 17.3039 154.152 17.3039C153.588 17.3039 153.072 17.402 152.604 17.5981C152.148 17.7827 151.752 18.0366 151.416 18.3596C151.092 18.6712 150.834 19.0346 150.642 19.45C150.462 19.8539 150.372 20.2693 150.372 20.6962C150.372 21.7808 150.978 22.3231 152.19 22.3231C152.634 22.3231 152.994 22.2596 153.27 22.1327C153.546 21.9943 153.762 21.8443 153.918 21.6827C154.086 21.5096 154.206 21.3481 154.278 21.1981C154.362 21.0366 154.422 20.9327 154.458 20.8866C154.554 20.7597 154.626 20.7308 154.674 20.8C154.722 20.8577 154.728 20.95 154.692 21.077C154.62 21.3539 154.482 21.602 154.278 21.8212C154.086 22.0404 153.858 22.225 153.594 22.375C153.342 22.5135 153.078 22.6231 152.802 22.7039C152.526 22.7731 152.28 22.8077 152.064 22.8077C151.296 22.8077 150.726 22.6116 150.354 22.2193C149.982 21.827 149.796 21.3308 149.796 20.7308C149.796 19.4731 150.204 18.5327 151.02 17.9096C151.848 17.275 153.036 16.9577 154.584 16.9577C155.52 16.9577 156.348 17.0846 157.068 17.3385C157.788 17.5923 158.394 17.9558 158.886 18.4289C159.39 18.8904 159.768 19.45 160.02 20.1077C160.272 20.7654 160.398 21.4981 160.398 22.3058C160.398 22.7558 160.332 23.2693 160.2 23.8462C160.08 24.4116 159.966 24.9943 159.858 25.5943C160.17 25.1443 160.5 24.6193 160.848 24.0193C161.208 23.4193 161.586 22.802 161.982 22.1673C162.39 21.5212 162.816 20.8866 163.26 20.2635C163.716 19.6404 164.196 19.0866 164.7 18.602C165.216 18.1058 165.756 17.7077 166.32 17.4077C166.896 17.1077 167.502 16.9577 168.138 16.9577C168.45 16.9577 168.654 16.9693 168.75 16.9923C168.858 17.0154 168.912 17.0962 168.912 17.2346Z" fill="#172D60"/>
<path d="M181.5 25C181.5 28.1887 179.142 31.3465 174.576 34.3118C170.033 37.2631 163.425 39.94 155.214 42.1955C138.801 46.7047 116.097 49.5 91 49.5C65.9026 49.5 43.1992 46.7047 26.7857 42.1955C18.5754 39.94 11.9674 37.2631 7.42358 34.3118C2.85823 31.3465 0.5 28.1887 0.5 25C0.5 21.8113 2.85823 18.6535 7.42358 15.6882C11.9674 12.7369 18.5754 10.06 26.7857 7.80447C43.1992 3.29526 65.9026 0.5 91 0.5C116.097 0.5 138.801 3.29526 155.214 7.80447C163.425 10.06 170.033 12.7369 174.576 15.6882C179.142 18.6535 181.5 21.8113 181.5 25Z" stroke="#172D60"/>
</svg>
