<svg width="24" height="16" viewBox="0 0 24 16" fill="none" xmlns="http://www.w3.org/2000/svg">
<path d="M0 2.66667C0 1.95942 0.316071 1.28115 0.87868 0.781048C1.44129 0.280951 2.20435 0 3 0H21C21.7956 0 22.5587 0.280951 23.1213 0.781048C23.6839 1.28115 24 1.95942 24 2.66667V13.3333C24 14.0406 23.6839 14.7189 23.1213 15.219C22.5587 15.719 21.7956 16 21 16H3C2.20435 16 1.44129 15.719 0.87868 15.219C0.316071 14.7189 0 14.0406 0 13.3333V2.66667ZM3 1.33333C2.60218 1.33333 2.22064 1.47381 1.93934 1.72386C1.65804 1.97391 1.5 2.31304 1.5 2.66667V2.956L12 8.556L22.5 2.956V2.66667C22.5 2.31304 22.342 1.97391 22.0607 1.72386C21.7794 1.47381 21.3978 1.33333 21 1.33333H3ZM22.5 4.51067L15.438 8.27733L22.5 12.14V4.51067ZM22.449 13.6787L13.989 9.05067L12 10.1107L10.011 9.05067L1.551 13.6773C1.63624 13.9611 1.82447 14.2118 2.08648 14.3907C2.34849 14.5696 2.66962 14.6666 3 14.6667H21C21.3302 14.6667 21.6512 14.5699 21.9131 14.3913C22.1751 14.2126 22.3635 13.9621 22.449 13.6787ZM1.5 12.14L8.562 8.27733L1.5 4.51067V12.14Z" fill="#172D60"/>
</svg>
