<svg width="18" height="18" viewBox="0 0 18 18" fill="none" xmlns="http://www.w3.org/2000/svg">
<path d="M4.11128 1.49384C4.04487 1.40841 3.96104 1.33809 3.86536 1.28755C3.76968 1.237 3.66434 1.2074 3.55634 1.20069C3.44834 1.19399 3.34015 1.21034 3.23895 1.24867C3.13776 1.28699 3.04587 1.34641 2.9694 1.42297L1.80615 2.58734C1.26278 3.13184 1.06253 3.90247 1.2999 4.57859C2.28511 7.37713 3.88774 9.91795 5.9889 12.0126C8.08357 14.1137 10.6244 15.7164 13.4229 16.7016C14.099 16.939 14.8697 16.7387 15.4142 16.1953L16.5774 15.0321C16.654 14.9556 16.7134 14.8637 16.7517 14.7625C16.79 14.6614 16.8064 14.5532 16.7997 14.4452C16.793 14.3372 16.7634 14.2318 16.7128 14.1361C16.6623 14.0405 16.592 13.9566 16.5065 13.8902L13.9112 11.872C13.8199 11.8012 13.7137 11.752 13.6007 11.7283C13.4877 11.7045 13.3707 11.7067 13.2587 11.7347L10.7949 12.3501C10.466 12.4323 10.1215 12.4279 9.79483 12.3374C9.46815 12.2469 9.17048 12.0734 8.93078 11.8337L6.16778 9.06959C5.9279 8.83001 5.75415 8.53239 5.66346 8.2057C5.57277 7.87902 5.56823 7.53443 5.65028 7.20547L6.26678 4.74172C6.2948 4.62966 6.29701 4.51271 6.27323 4.39968C6.24946 4.28664 6.20032 4.18049 6.12953 4.08922L4.11128 1.49384ZM2.12003 0.574719C2.3169 0.377787 2.55341 0.22499 2.81386 0.126475C3.07431 0.0279597 3.35274 -0.0140201 3.63066 0.00332326C3.90858 0.0206666 4.17963 0.0969361 4.42581 0.227067C4.67199 0.357199 4.88767 0.538214 5.05853 0.758094L7.07678 3.35234C7.44691 3.82822 7.5774 4.44809 7.43116 5.03309L6.81578 7.49684C6.78396 7.62445 6.78568 7.75812 6.82077 7.88487C6.85586 8.01161 6.92312 8.12714 7.01603 8.22022L9.78016 10.9843C9.87335 11.0774 9.98906 11.1448 10.116 11.1799C10.243 11.215 10.3769 11.2166 10.5047 11.1846L12.9673 10.5692C13.256 10.497 13.5573 10.4914 13.8485 10.5528C14.1396 10.6142 14.4131 10.741 14.648 10.9236L17.2423 12.9418C18.1749 13.6675 18.2604 15.0456 17.4257 15.8792L16.2624 17.0425C15.4299 17.875 14.1857 18.2406 13.0258 17.8322C10.0571 16.7877 7.36171 15.0882 5.13953 12.8597C2.91123 10.6379 1.21171 7.94286 0.16703 4.97459C-0.24022 3.81584 0.125405 2.57047 0.957905 1.73797L2.12115 0.574719H2.12003Z" fill="#172D60"/>
</svg>
