<svg width="486" height="488" viewBox="0 0 486 488" fill="none" xmlns="http://www.w3.org/2000/svg">
<path d="M403.5 242.519C403.5 330.561 332.09 401.934 244 401.934C155.91 401.934 84.5 330.561 84.5 242.519C84.5 154.477 155.91 83.104 244 83.104C332.09 83.104 403.5 154.477 403.5 242.519Z" stroke="#30ABC1" stroke-opacity="0.5"/>
<path d="M482.5 243.518C482.5 375.72 375.272 482.891 243 482.891C110.728 482.891 3.5 375.72 3.5 243.518C3.5 111.317 110.728 4.146 243 4.146C375.272 4.146 482.5 111.317 482.5 243.518Z" stroke="#30ABC1"/>
<path d="M366 35.6289C366 37.8368 364.209 39.6267 362 39.6267C359.791 39.6267 358 37.8368 358 35.6289C358 33.4209 359.791 31.631 362 31.631C364.209 31.631 366 33.4209 366 35.6289Z" fill="#30ABC1"/>
<path d="M454 123.582C454 125.79 452.209 127.58 450 127.58C447.791 127.58 446 125.79 446 123.582C446 121.374 447.791 119.584 450 119.584C452.209 119.584 454 121.374 454 123.582Z" fill="#30ABC1"/>
<path d="M486 243.518C486 245.726 484.209 247.516 482 247.516C479.791 247.516 478 245.726 478 243.518C478 241.31 479.791 239.52 482 239.52C484.209 239.52 486 241.31 486 243.518Z" fill="#30ABC1"/>
<path d="M367 450.408C367 452.616 365.209 454.406 363 454.406C360.791 454.406 359 452.616 359 450.408C359 448.2 360.791 446.411 363 446.411C365.209 446.411 367 448.2 367 450.408Z" fill="#30ABC1"/>
<path d="M455 363.455C455 365.663 453.209 367.452 451 367.452C448.791 367.452 447 365.663 447 363.455C447 361.247 448.791 359.457 451 359.457C453.209 359.457 455 361.247 455 363.455Z" fill="#30ABC1"/>
<path d="M247 4.64534C247 6.8533 245.209 8.64321 243 8.64321C240.791 8.64321 239 6.8533 239 4.64534C239 2.43737 240.791 0.647461 243 0.647461C245.209 0.647461 247 2.43737 247 4.64534Z" fill="#30ABC1"/>
<path d="M127 36.6283C127 38.8363 125.209 40.6262 123 40.6262C120.791 40.6262 119 38.8363 119 36.6283C119 34.4204 120.791 32.6305 123 32.6305C125.209 32.6305 127 34.4204 127 36.6283Z" fill="#30ABC1"/>
<path d="M39 124.582C39 126.79 37.2091 128.579 35 128.579C32.7909 128.579 31 126.79 31 124.582C31 122.374 32.7909 120.584 35 120.584C37.2091 120.584 39 122.374 39 124.582Z" fill="#30ABC1"/>
<path d="M8 243.518C8 245.726 6.20914 247.516 4 247.516C1.79086 247.516 0 245.726 0 243.518C0 241.31 1.79086 239.52 4 239.52C6.20914 239.52 8 241.31 8 243.518Z" fill="#30ABC1"/>
<path d="M40 363.455C40 365.663 38.2091 367.452 36 367.452C33.7909 367.452 32 365.663 32 363.455C32 361.247 33.7909 359.457 36 359.457C38.2091 359.457 40 361.247 40 363.455Z" fill="#30ABC1"/>
<path d="M127 451.408C127 453.616 125.209 455.406 123 455.406C120.791 455.406 119 453.616 119 451.408C119 449.2 120.791 447.41 123 447.41C125.209 447.41 127 449.2 127 451.408Z" fill="#30ABC1"/>
<path d="M247 483.391C247 485.599 245.209 487.389 243 487.389C240.791 487.389 239 485.599 239 483.391C239 481.183 240.791 479.393 243 479.393C245.209 479.393 247 481.183 247 483.391Z" fill="#30ABC1"/>
</svg>
