<svg width="16" height="24" viewBox="0 0 16 24" fill="none" xmlns="http://www.w3.org/2000/svg">
<path d="M13.5547 13.41C12.856 15.003 11.9093 16.59 10.9413 18.015C10.0231 19.3584 9.0412 20.6453 8 21.87C6.95878 20.6453 5.97691 19.3584 5.05867 18.015C4.09067 16.59 3.144 15.003 2.44533 13.41C1.73867 11.8005 1.33333 10.293 1.33333 9C1.33333 7.01088 2.03571 5.10322 3.28595 3.6967C4.5362 2.29018 6.23189 1.5 8 1.5C9.76811 1.5 11.4638 2.29018 12.714 3.6967C13.9643 5.10322 14.6667 7.01088 14.6667 9C14.6667 10.293 14.26 11.8005 13.5547 13.41ZM8 24C8 24 16 15.471 16 9C16 6.61305 15.1571 4.32387 13.6569 2.63604C12.1566 0.948211 10.1217 0 8 0C5.87827 0 3.84344 0.948211 2.34315 2.63604C0.842855 4.32387 3.16163e-08 6.61305 0 9C0 15.471 8 24 8 24Z" fill="#172D60"/>
<path d="M8 12C7.29276 12 6.61448 11.6839 6.11438 11.1213C5.61428 10.5587 5.33333 9.79565 5.33333 9C5.33333 8.20435 5.61428 7.44129 6.11438 6.87868C6.61448 6.31607 7.29276 6 8 6C8.70724 6 9.38552 6.31607 9.88562 6.87868C10.3857 7.44129 10.6667 8.20435 10.6667 9C10.6667 9.79565 10.3857 10.5587 9.88562 11.1213C9.38552 11.6839 8.70724 12 8 12ZM8 13.5C9.06087 13.5 10.0783 13.0259 10.8284 12.182C11.5786 11.3381 12 10.1935 12 9C12 7.80653 11.5786 6.66193 10.8284 5.81802C10.0783 4.97411 9.06087 4.5 8 4.5C6.93913 4.5 5.92172 4.97411 5.17157 5.81802C4.42143 6.66193 4 7.80653 4 9C4 10.1935 4.42143 11.3381 5.17157 12.182C5.92172 13.0259 6.93913 13.5 8 13.5Z" fill="#172D60"/>
</svg>
