<svg width="56" height="56" viewBox="0 0 56 56" fill="none" xmlns="http://www.w3.org/2000/svg">
<mask id="path-1-inside-1_124_253" fill="white">
<path d="M56 28C56 43.464 43.464 56 28 56C12.536 56 0 43.464 0 28C0 12.536 12.536 0 28 0C43.464 0 56 12.536 56 28Z"/>
</mask>
<path d="M28.7071 11.2929C28.3166 10.9024 27.6834 10.9024 27.2929 11.2929L20.9289 17.6569C20.5384 18.0474 20.5384 18.6805 20.9289 19.0711C21.3195 19.4616 21.9526 19.4616 22.3431 19.0711L28 13.4142L33.6569 19.0711C34.0474 19.4616 34.6805 19.4616 35.0711 19.0711C35.4616 18.6805 35.4616 18.0474 35.0711 17.6569L28.7071 11.2929ZM29 44V12H27V44H29ZM54 28C54 42.3594 42.3594 54 28 54V58C44.5685 58 58 44.5685 58 28H54ZM28 54C13.6406 54 2 42.3594 2 28H-2C-2 44.5685 11.4315 58 28 58V54ZM2 28C2 13.6406 13.6406 2 28 2V-2C11.4315 -2 -2 11.4315 -2 28H2ZM28 2C42.3594 2 54 13.6406 54 28H58C58 11.4315 44.5685 -2 28 -2V2Z" fill="#41B1C5" mask="url(#path-1-inside-1_124_253)"/>
</svg>
